<svg width="24" height="24" viewBox="0 0 24 24" fill="none" xmlns="http://www.w3.org/2000/svg">
<path d="M5.07 15.015C5.06841 15.6716 4.8068 16.3009 4.3424 16.7651C3.878 17.2293 3.24863 17.4906 2.592 17.492C1.93554 17.4904 1.30643 17.2289 0.842245 16.7647C0.37806 16.3005 0.116582 15.6714 0.114998 15.015C0.116582 14.3585 0.37806 13.7294 0.842245 13.2652C1.30643 12.801 1.93554 12.5395 2.592 12.538H5.07V15.015ZM6.317 15.015C6.31858 14.3585 6.58006 13.7294 7.04424 13.2652C7.50843 12.801 8.13754 12.5395 8.794 12.538C9.45045 12.5395 10.0796 12.801 10.5438 13.2652C11.0079 13.7294 11.2694 14.3585 11.271 15.015V21.217C11.2694 21.8734 11.0079 22.5025 10.5438 22.9667C10.0796 23.4309 9.45045 23.6924 8.794 23.694C8.13754 23.6924 7.50843 23.4309 7.04424 22.9667C6.58006 22.5025 6.31858 21.8734 6.317 21.217V15.015Z" fill="#023A15"/>
<path d="M8.794 5.06999C8.13737 5.06841 7.50811 4.80679 7.04389 4.34239C6.57968 3.87799 6.31832 3.24862 6.317 2.59199C6.31858 1.93554 6.58006 1.30642 7.04424 0.842237C7.50843 0.378052 8.13754 0.116575 8.794 0.11499C9.45045 0.116575 10.0796 0.378052 10.5438 0.842237C11.0079 1.30642 11.2694 1.93554 11.271 2.59199V5.06999H8.794ZM8.794 6.31699C9.45045 6.31857 10.0796 6.58005 10.5438 7.04424C11.0079 7.50842 11.2694 8.13754 11.271 8.79399C11.2694 9.45044 11.0079 10.0796 10.5438 10.5437C10.0796 11.0079 9.45045 11.2694 8.794 11.271H2.592C1.93554 11.2694 1.30643 11.0079 0.842245 10.5437C0.37806 10.0796 0.116582 9.45044 0.114998 8.79399C0.116582 8.13754 0.37806 7.50842 0.842245 7.04424C1.30643 6.58005 1.93554 6.31857 2.592 6.31699H8.794Z" fill="#023A15"/>
<path d="M18.74 8.79399C18.7416 8.13754 19.0031 7.50842 19.4672 7.04424C19.9314 6.58005 20.5605 6.31857 21.217 6.31699C21.8734 6.31857 22.5026 6.58005 22.9667 7.04424C23.4309 7.50842 23.6924 8.13754 23.694 8.79399C23.6924 9.45044 23.4309 10.0796 22.9667 10.5437C22.5026 11.0079 21.8734 11.2694 21.217 11.271H18.74V8.79399ZM17.492 8.79399C17.4904 9.45044 17.2289 10.0796 16.7647 10.5437C16.3006 11.0079 15.6714 11.2694 15.015 11.271C14.3585 11.2694 13.7294 11.0079 13.2652 10.5437C12.8011 10.0796 12.5396 9.45044 12.538 8.79399V2.59199C12.5396 1.93554 12.8011 1.30642 13.2652 0.842237C13.7294 0.378052 14.3585 0.116575 15.015 0.11499C15.6714 0.116575 16.3006 0.378052 16.7647 0.842237C17.2289 1.30642 17.4904 1.93554 17.492 2.59199V8.79399Z" fill="#023A15"/>
<path d="M15.015 18.74C15.6714 18.7415 16.3006 19.003 16.7647 19.4672C17.2289 19.9314 17.4904 20.5605 17.492 21.217C17.4904 21.8734 17.2289 22.5025 16.7647 22.9667C16.3006 23.4309 15.6714 23.6924 15.015 23.694C14.3585 23.6924 13.7294 23.4309 13.2652 22.9667C12.8011 22.5025 12.5396 21.8734 12.538 21.217V18.74H15.015ZM15.015 17.492C14.3585 17.4904 13.7294 17.2289 13.2652 16.7647C12.8011 16.3005 12.5396 15.6714 12.538 15.015C12.5396 14.3585 12.8011 13.7294 13.2652 13.2652C13.7294 12.801 14.3585 12.5395 15.015 12.538H21.217C21.8734 12.5395 22.5026 12.801 22.9667 13.2652C23.4309 13.7294 23.6924 14.3585 23.694 15.015C23.6924 15.6714 23.4309 16.3005 22.9667 16.7647C22.5026 17.2289 21.8734 17.4904 21.217 17.492H15.015Z" fill="#023A15"/>
</svg>
