<svg width="558" height="650" viewBox="0 0 558 650" fill="none" xmlns="http://www.w3.org/2000/svg">
<g clip-path="url(#clip0_1_41)">
<path opacity="0.631091" d="M188.639 17.9855C149.551 60.7465 111.4 102.413 77.1847 149.657C52.1325 184.244 27.5019 224.237 13.7055 264.934C10.8838 273.253 -5.98431 312.564 7.24463 319.408C23.8888 328.02 59.9157 278.472 67.3137 269.938C105.106 226.327 142.215 182.216 178.393 137.255C186.077 127.706 291.279 13.2106 278.935 2.97773C274.713 -0.520088 258.11 12.0481 255.617 13.7006C236.01 26.6753 219.35 43.7474 203.102 60.6058C157.402 108.011 116.247 158.743 83.1249 215.886C69.9324 238.651 57.2033 262.525 47.4729 287.01C42.4802 299.584 35.6132 316.395 34.775 330.141C33.3277 353.964 56.9638 341.688 68.4435 333.78C109.572 305.448 144.246 261.248 175.915 223.174C214.758 176.472 256.028 131.777 294.824 85.054C305.862 71.7613 316.998 58.1297 326.874 43.9403C328.545 41.5528 336.714 31.32 334.954 27.7336C327.936 13.4764 261.635 78.3034 257.241 82.6926C209.256 130.562 169.891 186.595 136.712 245.537C110.603 291.926 81.2091 343.09 72.2544 396.36C69.3546 413.599 71.3954 430.197 92.392 420.699C111.389 412.108 126.482 394.796 140.253 379.773C165.352 352.39 189.357 323.802 213.082 295.226C255.325 244.343 299.276 194.821 343.107 145.315C358.465 127.971 374.089 110.863 389.437 93.5197C392.888 89.61 406.971 76.4424 405.368 69.8325C402.005 55.9194 353.191 92.352 348.584 95.7664C289.712 139.398 243.111 202.171 205.236 264.214C176.076 311.99 146.411 367.283 134.333 422.492C132.303 431.787 117.163 478.504 140.763 471.832C155.226 467.745 170.23 447.086 179.497 436.577C199.671 413.682 218.981 389.881 238.207 366.183C285.604 307.768 333.356 249.77 381.903 192.303C401.375 169.252 421.299 146.597 441.082 123.817C450.297 113.209 462.667 102.397 469.664 90.0427C481.701 68.7795 449.527 88.6457 443.67 92.4042C389.406 127.216 345.111 177.301 305.841 227.896C259.428 287.709 219.054 354.553 193.028 425.86C188.41 438.527 160.145 501.941 186.812 507.847C199.707 510.704 217.086 495.305 225.499 487.924C254.034 462.902 278.139 431.938 301.556 402.235C350.036 340.749 397.616 278.55 450.396 220.64C466.525 202.948 482.758 185.354 498.923 167.693C504.077 162.063 512.116 155.287 512.261 147.04C507.675 146.018 504.848 148.046 500.558 150.162C481.498 159.593 463.677 177.139 448.829 191.923C405.378 235.189 368.487 282.22 334.933 333.493C304.659 379.752 276.743 430.249 258.912 482.789C255.044 494.2 236.843 537.295 250.452 548.679C265.415 561.206 298.063 526.77 306.643 518.627C347.683 479.672 383.116 433.642 419.513 390.423C453.088 350.529 488.698 311.813 525.683 275.036C535.632 265.142 550.818 255.128 555.759 241.486C541.504 238.103 513.443 267.108 503.9 275.078C460.918 310.989 423.131 351.696 387.438 394.775C352.785 436.582 321.334 483.561 299.062 533.239C292.023 548.919 277.993 575.114 284.709 593.38C302.269 641.103 400.24 530.664 410.907 518.784C440.926 485.406 471.544 452.586 502.219 419.807C509.033 412.53 533.601 393.316 532.565 382.327C517.639 384.428 501.516 401.781 490.515 410.742C456.336 438.605 425.344 471.321 397.657 505.606C374.469 534.328 352.572 564.266 336.526 597.691C332.845 605.364 320.382 625.553 327.592 634.415C345.84 656.846 405.076 597.175 415.504 586.848C434.158 568.379 452.723 549.701 469.597 529.548C472.897 525.602 485.111 514.947 483.18 509.63C474.969 510.693 467.217 519.321 461.475 524.575C441.592 542.789 425.635 564.511 411.829 587.547C404.066 600.469 393.388 617.213 392.097 632.799C391.29 642.615 394.976 651.915 406.107 646.066" stroke="#F09C96" stroke-width="4"/>
</g>
<defs>
<clipPath id="clip0_1_41">
<rect width="558" height="650" fill="white"/>
</clipPath>
</defs>
</svg>
