<svg width="95" height="23" viewBox="0 0 95 23" fill="none" xmlns="http://www.w3.org/2000/svg">
<path d="M5.819 22.945C7.399 22.945 8.671 22.7 9.637 22.209C10.603 21.719 11.289 21.116 11.696 20.404C12.102 19.691 12.305 18.966 12.305 18.23C12.305 17.249 12.01 16.497 11.419 15.976C10.829 15.455 10.02 15.148 8.993 15.056L3.91 14.665C3.527 14.635 3.232 14.546 3.025 14.401C2.818 14.255 2.714 14.044 2.714 13.768C2.714 13.431 2.906 13.185 3.289 13.032C4.086 13.385 5.03699 13.561 6.141 13.561C7.751 13.561 9.039 13.201 10.005 12.48C10.971 11.76 11.454 10.786 11.454 9.559C11.454 8.915 11.308 8.332 11.017 7.811C10.7117 7.27504 10.2767 6.82427 9.752 6.5H12.144V5.925H8.533C7.813 5.695 7.015 5.58 6.141 5.58C5.09799 5.58 4.178 5.745 3.381 6.075C2.584 6.405 1.967 6.868 1.529 7.466C1.092 8.064 0.873997 8.762 0.873997 9.559C0.873997 10.264 1.043 10.893 1.38 11.445C1.717 11.997 2.193 12.449 2.806 12.802C2.239 12.986 1.75599 13.366 1.35699 13.941C0.967247 14.4881 0.758173 15.1433 0.758995 15.815C0.758995 16.919 1.158 17.739 1.955 18.276C1.434 18.429 1.015 18.698 0.701996 19.081C0.386996 19.464 0.229996 19.871 0.229996 20.3C0.229996 21.174 0.666997 21.833 1.541 22.278C2.415 22.723 3.841 22.945 5.819 22.945ZM6.164 13.032C5.781 13.032 5.501 12.767 5.324 12.238C5.148 11.709 5.06 10.87 5.06 9.72C5.06 8.463 5.148 7.543 5.324 6.96C5.501 6.377 5.781 6.086 6.164 6.086C6.547 6.086 6.827 6.377 7.004 6.96C7.18 7.543 7.268 8.463 7.268 9.72C7.268 10.87 7.18 11.71 7.004 12.238C6.827 12.768 6.547 13.032 6.164 13.032ZM6.946 22.002C5.566 22.002 4.485 21.742 3.703 21.22C2.921 20.699 2.52999 20.009 2.52999 19.15C2.52999 18.95 2.553 18.759 2.599 18.575C2.906 18.682 3.20499 18.744 3.49599 18.759L8.602 19.242C9.277 19.303 9.729 19.414 9.959 19.576C10.0676 19.6467 10.1563 19.744 10.2166 19.8587C10.277 19.9733 10.3071 20.1015 10.304 20.231C10.304 20.783 10.005 21.216 9.407 21.531C8.809 21.845 7.989 22.002 6.946 22.002ZM20.041 18V17.885C19.55 17.778 19.163 17.594 18.879 17.333C18.596 17.073 18.454 16.681 18.454 16.16V13.124C18.454 11.729 18.661 10.77 19.074 10.249C19.489 9.728 20.102 9.467 20.914 9.467C21.528 9.467 21.98 9.559 22.272 9.743H22.387V5.58H22.042C20.984 5.58 20.132 6.032 19.489 6.937C18.845 7.842 18.484 9.275 18.408 11.238H18.27V5.58L12.957 7.167V7.282C13.355 7.405 13.643 7.635 13.819 7.972C13.995 8.309 14.084 8.785 14.084 9.398V16.16C14.084 16.988 13.708 17.563 12.957 17.885V18H20.041ZM28.397 18.345C29.486 18.345 30.498 17.981 31.433 17.253C32.369 16.524 32.974 15.355 33.25 13.745L33.066 13.699C32.76 14.129 32.392 14.439 31.962 14.63C31.533 14.822 31.027 14.918 30.444 14.918C29.402 14.918 28.554 14.584 27.903 13.918C27.251 13.25 26.841 12.273 26.673 10.985H33.296C33.296 9.635 33.051 8.559 32.56 7.754C32.07 6.948 31.472 6.385 30.766 6.063C30.0737 5.74384 29.3203 5.57904 28.558 5.58C27.5683 5.56855 26.5997 5.86602 25.787 6.431C24.967 6.998 24.322 7.784 23.855 8.789C23.387 9.793 23.153 10.931 23.153 12.204C23.153 13.492 23.399 14.6 23.889 15.527C24.38 16.455 25.028 17.157 25.833 17.632C26.638 18.107 27.493 18.345 28.397 18.345ZM29.455 10.272H26.603C26.5846 10.0578 26.5769 9.84291 26.58 9.628C26.58 8.585 26.707 7.777 26.96 7.201C27.213 6.626 27.577 6.339 28.052 6.339C28.528 6.339 28.88 6.63 29.11 7.213C29.34 7.796 29.455 8.815 29.455 10.272ZM39.767 18.345C40.856 18.345 41.867 17.981 42.803 17.253C43.738 16.524 44.344 15.355 44.62 13.745L44.436 13.699C44.129 14.129 43.761 14.439 43.332 14.63C42.902 14.822 42.397 14.918 41.814 14.918C40.771 14.918 39.924 14.584 39.273 13.918C38.621 13.25 38.211 12.273 38.042 10.985H44.666C44.666 9.635 44.421 8.559 43.93 7.754C43.44 6.948 42.841 6.385 42.136 6.063C41.4437 5.74384 40.6903 5.57904 39.928 5.58C38.938 5.56834 37.9689 5.86582 37.156 6.431C36.336 6.998 35.692 7.784 35.225 8.789C34.757 9.793 34.523 10.931 34.523 12.204C34.523 13.492 34.768 14.6 35.259 15.527C35.749 16.455 36.397 17.157 37.203 17.632C38.007 18.107 38.863 18.345 39.767 18.345ZM40.825 10.272H37.973C37.9546 10.0578 37.9469 9.84291 37.95 9.628C37.95 8.585 38.076 7.777 38.33 7.201C38.582 6.626 38.947 6.339 39.422 6.339C39.897 6.339 40.25 6.63 40.48 7.213C40.71 7.796 40.825 8.815 40.825 10.272ZM51.942 18V17.885C51.8257 17.8372 51.72 17.7668 51.6311 17.6779C51.5422 17.589 51.4718 17.4833 51.424 17.367C51.324 17.13 51.274 16.804 51.274 16.39V8.087C51.3985 7.90404 51.5671 7.75544 51.7643 7.65493C51.9615 7.55443 52.1808 7.50527 52.402 7.512C52.739 7.512 53 7.631 53.184 7.868C53.368 8.106 53.46 8.455 53.46 8.915V16.39C53.46 16.804 53.41 17.13 53.31 17.367C53.2623 17.4832 53.1921 17.5888 53.1033 17.6777C53.0146 17.7666 52.9091 17.8371 52.793 17.885V18H58.957V17.885C58.205 17.563 57.83 16.988 57.83 16.16V8.915C57.83 7.857 57.538 7.037 56.956 6.454C56.373 5.871 55.553 5.58 54.495 5.58C53.713 5.58 53.042 5.76 52.482 6.12C51.922 6.48 51.52 6.998 51.275 7.673V5.58L45.778 7.144V7.259C46.192 7.382 46.483 7.581 46.652 7.857C46.82 8.133 46.905 8.547 46.905 9.099V16.16C46.905 16.988 46.529 17.563 45.778 17.885V18H51.942ZM66.462 18V17.885C65.711 17.563 65.335 16.988 65.335 16.16V1.21L59.838 2.889V3.004C60.237 3.142 60.525 3.353 60.701 3.637C60.877 3.92 60.965 4.284 60.965 4.729V16.16C60.965 16.988 60.59 17.563 59.838 17.885V18H66.462ZM70.656 5.396C71.3 5.396 71.84 5.177 72.277 4.741C72.715 4.303 72.933 3.771 72.933 3.142C72.933 2.513 72.714 1.977 72.277 1.532C71.841 1.087 71.3 0.864998 70.656 0.864998C70.012 0.864998 69.472 1.087 69.034 1.532C68.8218 1.74226 68.6544 1.9933 68.5418 2.27C68.4292 2.5467 68.3739 2.84332 68.379 3.142C68.379 3.771 68.597 4.304 69.034 4.741C69.472 5.178 70.012 5.396 70.656 5.396ZM74.083 18V17.885C73.332 17.563 72.956 16.988 72.956 16.16V5.58L67.459 7.144V7.259C67.873 7.382 68.164 7.581 68.333 7.857C68.502 8.133 68.586 8.547 68.586 9.099V16.16C68.586 16.988 68.21 17.563 67.459 17.885V18H74.083ZM79.473 18.345C80.577 18.345 81.508 18.123 82.267 17.678C83.027 17.233 83.597 16.654 83.981 15.942C84.3618 15.2394 84.5595 14.4522 84.556 13.653C84.556 12.166 83.843 11.085 82.416 10.41L79.036 8.846C78.714 8.693 78.472 8.501 78.311 8.271C78.158 8.06441 78.0737 7.81503 78.07 7.558C78.07 7.251 78.192 6.998 78.438 6.799C78.683 6.599 79.066 6.5 79.588 6.5C80.278 6.5 80.948 6.726 81.6 7.178C82.252 7.631 82.785 8.424 83.199 9.559L83.337 9.582L84.763 6.914C84.1593 6.46666 83.4821 6.12824 82.762 5.914C82.0312 5.69226 81.2717 5.57971 80.508 5.58C79.358 5.58 78.396 5.795 77.621 6.224C76.847 6.654 76.276 7.194 75.908 7.845C75.54 8.497 75.356 9.16 75.356 9.835C75.356 11.399 76.107 12.534 77.61 13.239L81.175 14.895C81.711 15.125 81.98 15.508 81.98 16.045C81.98 16.398 81.85 16.7 81.589 16.953C81.328 17.206 80.906 17.333 80.324 17.333C79.465 17.333 78.664 16.977 77.92 16.263C77.177 15.55 76.659 14.673 76.368 13.63L76.23 13.607L74.85 16.712C75.4848 17.2302 76.2044 17.6348 76.977 17.908C77.777 18.1985 78.6218 18.3464 79.473 18.345ZM89.923 18.345C91.042 18.345 91.962 18.015 92.683 17.356C93.3987 16.7038 93.9232 15.8689 94.2 14.941L93.993 14.872C93.871 15.1932 93.6693 15.4781 93.407 15.7C93.138 15.93 92.797 16.045 92.383 16.045C91.985 16.045 91.678 15.899 91.463 15.608C91.249 15.317 91.141 14.918 91.141 14.412V6.546H93.257V5.971H91.141V1.946H91.118C90.612 2.391 89.631 3.203 88.174 4.384C86.733 5.549 85.89 6.239 85.644 6.454V6.569H86.771V15.033C86.771 16.03 87.036 16.831 87.565 17.436C88.094 18.042 88.88 18.345 89.922 18.345H89.923Z" fill="white"/>
</svg>
